<svg
  xmlns="http://www.w3.org/2000/svg"
  width="16"
  height="16"
  viewBox="0 0 16 16"
  fill="none"
>
  <path
    fill="currentColor"
    d="M10.211 3.528a2.624 2.624 0 0 0-1.878.776L7.195 5.442a.667.667 0 1 0 .943.943l1.138-1.138a1.333 1.333 0 0 1 1.886 1.885l-1.138 1.138a.667.667 0 0 0 .943.943l1.138-1.138a2.667 2.667 0 0 0-1.894-4.552Z"
  />
  <path
    fill="currentColor"
    d="M5.032 6.788a.667.667 0 0 0-.943 0L2.95 7.926a2.667 2.667 0 1 0 3.771 3.772l1.138-1.139a.667.667 0 0 0-.943-.943l-1.138 1.139a1.333 1.333 0 0 1-1.886-1.886L5.03 7.73a.667.667 0 0 0 0-.943Z"
  />
  <path
    fill="currentColor"
    d="M9.468 6.528a.667.667 0 0 0-.943 0L6.528 8.525a.667.667 0 1 0 .943.943l1.997-1.997a.667.667 0 0 0 0-.943Z"
  />
  <path
    fill="currentColor"
    d="M12.804 1.53a.667.667 0 0 0-.943 0l-1.333 1.333a.667.667 0 1 0 .943.943l1.333-1.333a.667.667 0 0 0 0-.943Z"
  />
  <path
    fill="currentColor"
    d="M4.138 11.862a.667.667 0 0 0-.943 0L1.862 13.195a.667.667 0 1 0 .943.943l1.333-1.333a.667.667 0 0 0 0-.943Z"
  />
</svg>
